<svg xmlns="http://www.w3.org/2000/svg" width="60" height="58" viewBox="0 0 60 58">
  <g id="server" transform="translate(0 -1)">
    <path id="Path_12" data-name="Path 12" d="M10.5,7A4.5,4.5,0,1,0,15,11.5,4.505,4.505,0,0,0,10.5,7Zm0,7A2.5,2.5,0,1,1,13,11.5,2.5,2.5,0,0,1,10.5,14Z" fill="#fff"/>
    <circle id="Ellipse_16" data-name="Ellipse 16" cx="1" cy="1" r="1" transform="translate(49 9)" fill="#fff"/>
    <circle id="Ellipse_17" data-name="Ellipse 17" cx="1" cy="1" r="1" transform="translate(45 9)" fill="#fff"/>
    <circle id="Ellipse_18" data-name="Ellipse 18" cx="1" cy="1" r="1" transform="translate(51 12)" fill="#fff"/>
    <circle id="Ellipse_19" data-name="Ellipse 19" cx="1" cy="1" r="1" transform="translate(47 12)" fill="#fff"/>
    <circle id="Ellipse_20" data-name="Ellipse 20" cx="1" cy="1" r="1" transform="translate(41 9)" fill="#fff"/>
    <circle id="Ellipse_21" data-name="Ellipse 21" cx="1" cy="1" r="1" transform="translate(43 12)" fill="#fff"/>
    <circle id="Ellipse_22" data-name="Ellipse 22" cx="1" cy="1" r="1" transform="translate(37 9)" fill="#fff"/>
    <circle id="Ellipse_23" data-name="Ellipse 23" cx="1" cy="1" r="1" transform="translate(39 12)" fill="#fff"/>
    <circle id="Ellipse_24" data-name="Ellipse 24" cx="1" cy="1" r="1" transform="translate(33 9)" fill="#fff"/>
    <circle id="Ellipse_25" data-name="Ellipse 25" cx="1" cy="1" r="1" transform="translate(35 12)" fill="#fff"/>
    <path id="Path_13" data-name="Path 13" d="M60,17.392V5.608A4.613,4.613,0,0,0,55.392,1H4.608A4.613,4.613,0,0,0,0,5.608V17.391A4.583,4.583,0,0,0,1.777,21,4.582,4.582,0,0,0,0,24.608V36.391A4.613,4.613,0,0,0,4.608,41H29v8.1A5.016,5.016,0,0,0,25.1,53H1a1,1,0,0,0,0,2H25.1a5,5,0,0,0,9.8,0H59a1,1,0,0,0,0-2H34.9A5.016,5.016,0,0,0,31,49.1V41H55.392A4.613,4.613,0,0,0,60,36.392V24.608A4.581,4.581,0,0,0,58.223,21,4.582,4.582,0,0,0,60,17.392ZM33,54a3,3,0,1,1-3-3A3,3,0,0,1,33,54ZM58,24.608V36.391A2.611,2.611,0,0,1,55.392,39H4.608A2.611,2.611,0,0,1,2,36.392V24.608A2.611,2.611,0,0,1,4.608,22H55.391A2.611,2.611,0,0,1,58,24.608ZM4.608,20A2.611,2.611,0,0,1,2,17.392V5.608A2.611,2.611,0,0,1,4.608,3H55.391A2.611,2.611,0,0,1,58,5.608V17.391A2.611,2.611,0,0,1,55.392,20Z" fill="#fff"/>
    <path id="Path_14" data-name="Path 14" d="M10.5,35A4.5,4.5,0,1,0,6,30.5,4.505,4.505,0,0,0,10.5,35Zm0-7A2.5,2.5,0,1,1,8,30.5,2.5,2.5,0,0,1,10.5,28Z" fill="#fff"/>
    <circle id="Ellipse_26" data-name="Ellipse 26" cx="1" cy="1" r="1" transform="translate(49 28)" fill="#fff"/>
    <circle id="Ellipse_27" data-name="Ellipse 27" cx="1" cy="1" r="1" transform="translate(45 28)" fill="#fff"/>
    <circle id="Ellipse_28" data-name="Ellipse 28" cx="1" cy="1" r="1" transform="translate(51 31)" fill="#fff"/>
    <circle id="Ellipse_29" data-name="Ellipse 29" cx="1" cy="1" r="1" transform="translate(47 31)" fill="#fff"/>
    <circle id="Ellipse_30" data-name="Ellipse 30" cx="1" cy="1" r="1" transform="translate(41 28)" fill="#fff"/>
    <circle id="Ellipse_31" data-name="Ellipse 31" cx="1" cy="1" r="1" transform="translate(43 31)" fill="#fff"/>
    <circle id="Ellipse_32" data-name="Ellipse 32" cx="1" cy="1" r="1" transform="translate(37 28)" fill="#fff"/>
    <circle id="Ellipse_33" data-name="Ellipse 33" cx="1" cy="1" r="1" transform="translate(39 31)" fill="#fff"/>
    <circle id="Ellipse_34" data-name="Ellipse 34" cx="1" cy="1" r="1" transform="translate(33 28)" fill="#fff"/>
    <circle id="Ellipse_35" data-name="Ellipse 35" cx="1" cy="1" r="1" transform="translate(35 31)" fill="#fff"/>
  </g>
</svg>
