<svg xmlns="http://www.w3.org/2000/svg" width="60" height="59.749" viewBox="0 0 60 59.749">
  <g id="database" transform="translate(0 -0.125)">
    <path id="Path_15" data-name="Path 15" d="M10.5,6.125a4.5,4.5,0,1,0,4.5,4.5A4.505,4.505,0,0,0,10.5,6.125Zm0,7a2.5,2.5,0,1,1,2.5-2.5A2.5,2.5,0,0,1,10.5,13.125Z" fill="#fff"/>
    <circle id="Ellipse_36" data-name="Ellipse 36" cx="1" cy="1" r="1" transform="translate(49 8.125)" fill="#fff"/>
    <circle id="Ellipse_37" data-name="Ellipse 37" cx="1" cy="1" r="1" transform="translate(45 8.125)" fill="#fff"/>
    <circle id="Ellipse_38" data-name="Ellipse 38" cx="1" cy="1" r="1" transform="translate(51 11.125)" fill="#fff"/>
    <circle id="Ellipse_39" data-name="Ellipse 39" cx="1" cy="1" r="1" transform="translate(47 11.125)" fill="#fff"/>
    <circle id="Ellipse_40" data-name="Ellipse 40" cx="1" cy="1" r="1" transform="translate(41 8.125)" fill="#fff"/>
    <circle id="Ellipse_41" data-name="Ellipse 41" cx="1" cy="1" r="1" transform="translate(43 11.125)" fill="#fff"/>
    <circle id="Ellipse_42" data-name="Ellipse 42" cx="1" cy="1" r="1" transform="translate(37 8.125)" fill="#fff"/>
    <circle id="Ellipse_43" data-name="Ellipse 43" cx="1" cy="1" r="1" transform="translate(39 11.125)" fill="#fff"/>
    <circle id="Ellipse_44" data-name="Ellipse 44" cx="1" cy="1" r="1" transform="translate(33 8.125)" fill="#fff"/>
    <circle id="Ellipse_45" data-name="Ellipse 45" cx="1" cy="1" r="1" transform="translate(35 11.125)" fill="#fff"/>
    <path id="Path_16" data-name="Path 16" d="M10.5,25.125a4.5,4.5,0,1,0,4.5,4.5A4.505,4.505,0,0,0,10.5,25.125Zm0,7a2.5,2.5,0,1,1,2.5-2.5A2.5,2.5,0,0,1,10.5,32.125Z" fill="#fff"/>
    <path id="Path_17" data-name="Path 17" d="M10.5,44.125a4.5,4.5,0,1,0,4.5,4.5A4.505,4.505,0,0,0,10.5,44.125Zm0,7a2.5,2.5,0,1,1,2.5-2.5A2.5,2.5,0,0,1,10.5,51.125Z" fill="#fff"/>
    <path id="Path_18" data-name="Path 18" d="M60,16.517V4.733A4.613,4.613,0,0,0,55.392.125H4.608A4.613,4.613,0,0,0,0,4.733V16.516a4.581,4.581,0,0,0,1.777,3.608A4.586,4.586,0,0,0,0,23.733V35.516a4.581,4.581,0,0,0,1.777,3.608A4.586,4.586,0,0,0,0,42.733V54.516a4.613,4.613,0,0,0,4.608,4.608H32.483a47.791,47.791,0,0,0,8.517.75c8.672,0,17.816-2.249,18.9-6.553a.99.99,0,0,0,.1-.446V25.125a.981.981,0,0,0-.1-.416c-.347-1.464-1.648-2.7-3.562-3.685A4.614,4.614,0,0,0,60,16.517Zm-58,19V23.733a2.611,2.611,0,0,1,2.608-2.608h20.86c-1.809.971-3.037,2.169-3.372,3.584a.985.985,0,0,0-.1.416v13H4.608A2.611,2.611,0,0,1,2,35.517ZM24.626,29.38l.139.087q.264.165.55.324c.055.03.108.061.163.09.233.125.475.247.727.364.04.019.083.037.123.055.221.1.448.2.682.293l.206.083c.276.108.557.214.848.314l.048.016c.278.095.564.186.855.274l.236.07c.288.084.58.166.879.244l.071.019c.322.083.651.16.985.235l.253.055q.429.093.867.177l.174.034q.514.1,1.041.179l.251.039q.437.067.88.126l.243.032q.537.067,1.081.125c.073.008.147.014.22.021.305.03.612.057.919.082l.278.022c.367.027.736.051,1.1.07l.158.007q.488.024.977.037l.295.008c.373.008.746.014,1.118.014s.745-.006,1.118-.014l.295-.008c.326-.009.651-.021.977-.037l.158-.007c.369-.019.738-.043,1.1-.07l.278-.022c.308-.024.614-.052.919-.082l.22-.021q.544-.057,1.081-.125l.243-.032c.295-.039.589-.081.88-.126.084-.013.168-.025.251-.039q.527-.084,1.041-.179l.174-.034q.439-.084.867-.177l.253-.055c.333-.075.663-.152.985-.235l.071-.019c.3-.077.591-.159.879-.244l.236-.07c.291-.088.577-.179.855-.274l.048-.016c.291-.1.573-.206.848-.314.07-.027.138-.055.206-.083.234-.095.461-.192.682-.293.041-.019.083-.036.123-.055.252-.117.493-.239.727-.364l.163-.09q.285-.157.55-.324c.046-.029.094-.057.139-.087q.311-.2.589-.414L58,28.94v4.988a.975.975,0,0,0-.021.353A1.156,1.156,0,0,1,58,34.5a1.446,1.446,0,0,1-.058.333,1.734,1.734,0,0,1-.084.259,2.016,2.016,0,0,1-.116.226,2.581,2.581,0,0,1-.144.226,3.3,3.3,0,0,1-.263.312c-.037.04-.074.08-.114.12-2.117,2.048-8.364,3.9-16.22,3.9s-14.1-1.848-16.216-3.9c-.044-.044-.084-.087-.124-.131a3.358,3.358,0,0,1-.253-.3,2.5,2.5,0,0,1-.152-.238,2.065,2.065,0,0,1-.11-.214,1.709,1.709,0,0,1-.088-.271A1.372,1.372,0,0,1,24,34.5a1.259,1.259,0,0,1,.021-.212A1,1,0,0,0,24,33.9V28.939l.038.026Q24.315,29.178,24.626,29.38ZM57.857,44.092a2.016,2.016,0,0,1-.116.226,2.581,2.581,0,0,1-.144.226,3.3,3.3,0,0,1-.263.312c-.037.04-.074.08-.114.12-2.117,2.048-8.364,3.9-16.22,3.9s-14.1-1.848-16.216-3.9c-.044-.044-.084-.087-.124-.131a3.358,3.358,0,0,1-.253-.3,2.5,2.5,0,0,1-.152-.238,2.065,2.065,0,0,1-.11-.214,1.709,1.709,0,0,1-.088-.271,1.4,1.4,0,0,1-.05-.283v-.12c0-.045.006-.09.013-.135a.949.949,0,0,0-.014-.255L24,38.125v-.186c.04.031.087.06.129.09.126.094.258.186.393.277.11.073.224.145.34.217.179.11.359.219.551.324l0,0a25.948,25.948,0,0,0,8.125,2.455l.072.011c1.023.159,2.073.283,3.141.374.227.019.453.039.682.055s.446.03.67.042q.453.025.906.044c.176.007.352.015.529.02.487.014.973.024,1.458.024s.97-.009,1.455-.023c.178-.005.355-.013.533-.02q.45-.018.9-.043.339-.02.676-.043c.225-.016.447-.035.671-.054,1.078-.091,2.138-.217,3.17-.377l.046-.007a24.358,24.358,0,0,0,8.681-2.779c.115-.071.229-.142.338-.215.135-.09.267-.182.392-.276.045-.033.1-.064.14-.1v4.988a.975.975,0,0,0-.021.353A1.6,1.6,0,0,1,58,43.5a1.446,1.446,0,0,1-.058.333A1.74,1.74,0,0,1,57.857,44.092ZM4.608,57.125A2.611,2.611,0,0,1,2,54.517V42.733a2.611,2.611,0,0,1,2.608-2.608H22v13.75h.3c.016.037.039.073.057.11.035.075.074.148.114.222a4.517,4.517,0,0,0,.278.438,5.074,5.074,0,0,0,.339.424c.062.07.124.139.191.208a7.949,7.949,0,0,0,1.374,1.111l.056.036a12.537,12.537,0,0,0,1.248.7H4.608ZM58,52.619c-.008.031-.015.063-.02.094-.409,2.493-7.33,5.162-16.98,5.162a45.2,45.2,0,0,1-8.276-.724v-.008c-4.973-.941-7.725-2.53-8.495-3.87a.005.005,0,0,1,0,0c-.035-.062-.06-.123-.087-.183a1.706,1.706,0,0,1-.121-.373l-.008-5.765c.036.028.079.054.116.082.126.094.258.186.393.277.11.073.224.145.34.217.179.11.359.219.551.324l0,0a25.948,25.948,0,0,0,8.125,2.455l.072.011c1.023.159,2.073.283,3.141.374.227.019.453.039.682.055s.446.03.67.042q.453.025.906.044c.176.007.352.015.529.02.487.014.973.024,1.458.024s.97-.009,1.455-.023c.178-.005.355-.013.533-.02q.45-.018.9-.043.339-.02.676-.043c.225-.016.447-.035.671-.054,1.078-.091,2.138-.217,3.17-.377l.046-.007A24.358,24.358,0,0,0,57.13,47.53c.115-.071.229-.142.338-.215.135-.09.267-.182.392-.276.045-.033.1-.064.14-.1v5.678ZM58,25.5c0,2.537-7.271,5.375-17,5.375S24,28.037,24,25.5a1.439,1.439,0,0,1,.068-.388,1.855,1.855,0,0,1,.174-.4l.009-.018a5.4,5.4,0,0,1,2.037-1.731l.134-.072q.266-.144.561-.285c.229-.107.464-.214.716-.317.049-.021.1-.041.151-.061a25.965,25.965,0,0,1,4.138-1.21c.493-.1.995-.2,1.511-.288.137-.023.271-.047.41-.069a48.806,48.806,0,0,1,14.177,0c.141.022.277.047.416.07.513.085,1.012.182,1.5.286C54.878,22.058,58,23.841,58,25.5Zm0-8.983a2.611,2.611,0,0,1-2.608,2.608h-4.63c-.058-.013-.122-.021-.18-.034-.656-.142-1.331-.269-2.021-.379l-.2-.031a48.978,48.978,0,0,0-14.718,0l-.206.031c-.688.11-1.361.237-2.015.378-.059.013-.125.021-.184.034H4.608A2.61,2.61,0,0,1,2,16.517V4.733A2.611,2.611,0,0,1,4.608,2.125H55.391A2.611,2.611,0,0,1,58,4.733Z" fill="#fff"/>
  </g>
</svg>
