<svg xmlns="http://www.w3.org/2000/svg" width="18.687" height="17.762" viewBox="0 0 18.687 17.762">
  <g id="home" transform="translate(0 -12.675)">
    <g id="Group_62" data-name="Group 62" transform="translate(0 12.675)">
      <g id="Group_61" data-name="Group 61" transform="translate(0 0)">
        <path id="Path_68" data-name="Path 68" d="M18.373,20.567l-8.384-7.64a.954.954,0,0,0-1.291,0L.314,20.567a.958.958,0,0,0,.645,1.667H2.3v7.654a.55.55,0,0,0,.55.55h4.6a.55.55,0,0,0,.55-.55V25.24h2.7v4.648a.55.55,0,0,0,.55.55h4.6a.55.55,0,0,0,.55-.55V22.233h1.339a.958.958,0,0,0,.645-1.667Z" transform="translate(0 -12.675)" fill="#eeba10"/>
      </g>
    </g>
    <g id="Group_64" data-name="Group 64" transform="translate(12.554 13.772)">
      <g id="Group_63" data-name="Group 63" transform="translate(0 0)">
        <path id="Path_69" data-name="Path 69" d="M347.664,42.73h-3.691l4.24,3.856V43.28A.55.55,0,0,0,347.664,42.73Z" transform="translate(-343.973 -42.73)" fill="#eeba10"/>
      </g>
    </g>
  </g>
</svg>
