<svg xmlns="http://www.w3.org/2000/svg" width="26.156" height="26.194" viewBox="0 0 26.156 26.194">
  <g id="phone-call" transform="translate(0)">
    <g id="Group_3" data-name="Group 3" transform="translate(0 0)">
      <path id="Path_8" data-name="Path 8" d="M21.027,42.117a2.576,2.576,0,0,0-1.869-.857,2.664,2.664,0,0,0-1.891.851l-1.747,1.741c-.144-.077-.287-.149-.426-.221-.2-.1-.387-.193-.547-.293A18.987,18.987,0,0,1,10,39.193a11.2,11.2,0,0,1-1.493-2.355c.453-.415.873-.846,1.283-1.26.155-.155.31-.315.464-.47a2.536,2.536,0,0,0,0-3.826L8.743,29.772c-.171-.171-.348-.348-.514-.525-.332-.343-.68-.7-1.039-1.028a2.617,2.617,0,0,0-1.852-.813,2.708,2.708,0,0,0-1.88.813l-.011.011-1.88,1.9A4.045,4.045,0,0,0,.367,32.7a9.691,9.691,0,0,0,.708,4.1A23.8,23.8,0,0,0,5.3,43.853a26.017,26.017,0,0,0,8.663,6.783,13.5,13.5,0,0,0,4.865,1.437c.116.006.238.011.348.011a4.166,4.166,0,0,0,3.19-1.371c.006-.011.017-.017.022-.028a12.568,12.568,0,0,1,.967-1c.238-.227.481-.464.719-.713a2.758,2.758,0,0,0,.835-1.913,2.657,2.657,0,0,0-.851-1.9Zm1.979,5.821c-.006,0-.006.006,0,0-.216.232-.437.442-.674.674a14.538,14.538,0,0,0-1.067,1.106,2.665,2.665,0,0,1-2.079.879c-.083,0-.171,0-.254-.006A11.991,11.991,0,0,1,14.62,49.3a24.558,24.558,0,0,1-8.16-6.391,22.444,22.444,0,0,1-3.98-6.629,7.894,7.894,0,0,1-.619-3.461,2.538,2.538,0,0,1,.763-1.642l1.885-1.885a1.257,1.257,0,0,1,.84-.393,1.183,1.183,0,0,1,.807.387l.017.017c.337.315.658.641,1,.99.171.177.348.354.525.536L9.2,32.337a1.055,1.055,0,0,1,0,1.714c-.16.16-.315.321-.475.475-.464.475-.907.918-1.388,1.349-.011.011-.022.017-.028.028a1.128,1.128,0,0,0-.287,1.255l.017.05a12.117,12.117,0,0,0,1.786,2.913l.006.006a20.291,20.291,0,0,0,4.909,4.467,7.548,7.548,0,0,0,.68.37c.2.1.387.193.547.293.022.011.044.028.066.039a1.2,1.2,0,0,0,.547.138,1.182,1.182,0,0,0,.84-.381l1.891-1.891a1.251,1.251,0,0,1,.835-.415,1.126,1.126,0,0,1,.8.4l.011.011L23,46.208A1.093,1.093,0,0,1,23.006,47.939Z" transform="translate(-0.344 -25.891)" fill="#eeba10"/>
      <path id="Path_9" data-name="Path 9" d="M245.558,87.406a7.115,7.115,0,0,1,5.794,5.794.742.742,0,0,0,.735.619.988.988,0,0,0,.127-.011.747.747,0,0,0,.614-.862,8.6,8.6,0,0,0-7.01-7.01.75.75,0,0,0-.862.608A.738.738,0,0,0,245.558,87.406Z" transform="translate(-231.421 -81.175)" fill="#eeba10"/>
      <path id="Path_10" data-name="Path 10" d="M261.186,11.555A14.166,14.166,0,0,0,249.642.012a.745.745,0,1,0-.243,1.471A12.653,12.653,0,0,1,259.715,11.8a.742.742,0,0,0,.735.619.987.987,0,0,0,.127-.011A.732.732,0,0,0,261.186,11.555Z" transform="translate(-235.041 0)" fill="#eeba10"/>
    </g>
  </g>
</svg>
