<svg id="telegram" xmlns="http://www.w3.org/2000/svg" width="25.622" height="25.622" viewBox="0 0 25.622 25.622">
  <g id="Group_53" data-name="Group 53">
    <path id="Path_67" data-name="Path 67" d="M12.811,1.6A11.209,11.209,0,1,1,1.6,12.811,11.223,11.223,0,0,1,12.811,1.6m0-1.6A12.811,12.811,0,1,0,25.622,12.811,12.811,12.811,0,0,0,12.811,0Z" fill="#eeba10"/>
  </g>
  <g id="XMLID_496_" transform="translate(4.383 6.658)">
    <path id="XMLID_497_" d="M87.849,139.323l3.469,1.295,1.343,4.318a.408.408,0,0,0,.649.2l1.934-1.576a.577.577,0,0,1,.7-.02l3.487,2.532a.409.409,0,0,0,.641-.247l2.555-12.289a.409.409,0,0,0-.547-.465l-14.236,5.492A.409.409,0,0,0,87.849,139.323Zm4.6.605,6.779-4.175a.118.118,0,0,1,.143.187l-5.6,5.2a1.16,1.16,0,0,0-.359.694l-.191,1.412a.175.175,0,0,1-.342.025l-.733-2.576A.683.683,0,0,1,92.445,139.929Z" transform="translate(-87.583 -133.038)" fill="#eeba10"/>
  </g>
</svg>
